<mxfile host="app.diagrams.net" agent="Mozilla/5.0 (Windows NT 10.0; Win64; x64) AppleWebKit/537.36 (KHTML, like Gecko) Chrome/127.0.0.0 Safari/537.36" version="24.7.7">
  <diagram name="Page-1" id="Fx74WdmUoeoexQfMjC3Z">
    <mxGraphModel dx="1050" dy="557" grid="1" gridSize="10" guides="1" tooltips="1" connect="1" arrows="1" fold="1" page="1" pageScale="1" pageWidth="850" pageHeight="1100" math="0" shadow="0">
      <root>
        <mxCell id="0" />
        <mxCell id="1" parent="0" />
        <mxCell id="U9wq2Zo5E94ij_8vmsNH-1" style="edgeStyle=orthogonalEdgeStyle;rounded=0;orthogonalLoop=1;jettySize=auto;html=1;exitX=0.5;exitY=1;exitDx=0;exitDy=0;" parent="1" source="U9wq2Zo5E94ij_8vmsNH-2" target="U9wq2Zo5E94ij_8vmsNH-5" edge="1">
          <mxGeometry relative="1" as="geometry" />
        </mxCell>
        <mxCell id="U9wq2Zo5E94ij_8vmsNH-2" value="Mulai" style="ellipse;whiteSpace=wrap;html=1;" parent="1" vertex="1">
          <mxGeometry x="362.5" width="120" height="60" as="geometry" />
        </mxCell>
        <mxCell id="U9wq2Zo5E94ij_8vmsNH-3" value="Selesai" style="ellipse;whiteSpace=wrap;html=1;" parent="1" vertex="1">
          <mxGeometry x="362.5" y="490" width="120" height="60" as="geometry" />
        </mxCell>
        <mxCell id="U9wq2Zo5E94ij_8vmsNH-4" style="edgeStyle=orthogonalEdgeStyle;rounded=0;orthogonalLoop=1;jettySize=auto;html=1;exitX=0.5;exitY=1;exitDx=0;exitDy=0;" parent="1" source="U9wq2Zo5E94ij_8vmsNH-5" target="U9wq2Zo5E94ij_8vmsNH-10" edge="1">
          <mxGeometry relative="1" as="geometry" />
        </mxCell>
        <mxCell id="U9wq2Zo5E94ij_8vmsNH-5" value="Tampilkan&lt;div&gt;Hapus Data&lt;/div&gt;" style="rounded=0;whiteSpace=wrap;html=1;" parent="1" vertex="1">
          <mxGeometry x="362.5" y="120" width="120" height="60" as="geometry" />
        </mxCell>
        <mxCell id="U9wq2Zo5E94ij_8vmsNH-6" style="edgeStyle=orthogonalEdgeStyle;rounded=0;orthogonalLoop=1;jettySize=auto;html=1;exitX=0.5;exitY=1;exitDx=0;exitDy=0;" parent="1" source="U9wq2Zo5E94ij_8vmsNH-10" target="U9wq2Zo5E94ij_8vmsNH-12" edge="1">
          <mxGeometry relative="1" as="geometry">
            <Array as="points">
              <mxPoint x="423" y="420" />
              <mxPoint x="423" y="420" />
            </Array>
          </mxGeometry>
        </mxCell>
        <mxCell id="U9wq2Zo5E94ij_8vmsNH-7" value="Ya" style="edgeLabel;html=1;align=center;verticalAlign=middle;resizable=0;points=[];" parent="U9wq2Zo5E94ij_8vmsNH-6" connectable="0" vertex="1">
          <mxGeometry x="-0.05" y="-3" relative="1" as="geometry">
            <mxPoint as="offset" />
          </mxGeometry>
        </mxCell>
        <mxCell id="U9wq2Zo5E94ij_8vmsNH-8" style="edgeStyle=orthogonalEdgeStyle;rounded=0;orthogonalLoop=1;jettySize=auto;html=1;exitX=0;exitY=0.5;exitDx=0;exitDy=0;entryX=0;entryY=0.5;entryDx=0;entryDy=0;" parent="1" source="U9wq2Zo5E94ij_8vmsNH-10" target="U9wq2Zo5E94ij_8vmsNH-2" edge="1">
          <mxGeometry relative="1" as="geometry">
            <Array as="points">
              <mxPoint x="260" y="280" />
              <mxPoint x="260" y="30" />
            </Array>
          </mxGeometry>
        </mxCell>
        <mxCell id="U9wq2Zo5E94ij_8vmsNH-9" value="Tidak" style="edgeLabel;html=1;align=center;verticalAlign=middle;resizable=0;points=[];" parent="U9wq2Zo5E94ij_8vmsNH-8" vertex="1" connectable="0">
          <mxGeometry x="0.0302" y="1" relative="1" as="geometry">
            <mxPoint as="offset" />
          </mxGeometry>
        </mxCell>
        <mxCell id="U9wq2Zo5E94ij_8vmsNH-10" value="Konfirmasi?" style="rhombus;whiteSpace=wrap;html=1;" parent="1" vertex="1">
          <mxGeometry x="376.25" y="240" width="92.5" height="80" as="geometry" />
        </mxCell>
        <mxCell id="U9wq2Zo5E94ij_8vmsNH-11" style="edgeStyle=orthogonalEdgeStyle;rounded=0;orthogonalLoop=1;jettySize=auto;html=1;exitX=0.5;exitY=1;exitDx=0;exitDy=0;entryX=0.5;entryY=0;entryDx=0;entryDy=0;" parent="1" source="U9wq2Zo5E94ij_8vmsNH-12" target="U9wq2Zo5E94ij_8vmsNH-3" edge="1">
          <mxGeometry relative="1" as="geometry">
            <mxPoint x="420" y="570" as="targetPoint" />
          </mxGeometry>
        </mxCell>
        <mxCell id="U9wq2Zo5E94ij_8vmsNH-12" value="Operasi ke database" style="rounded=0;whiteSpace=wrap;html=1;" parent="1" vertex="1">
          <mxGeometry x="362.5" y="390" width="120" height="60" as="geometry" />
        </mxCell>
      </root>
    </mxGraphModel>
  </diagram>
</mxfile>
